<svg width="40" height="40" viewBox="0 0 40 40" fill="none" xmlns="http://www.w3.org/2000/svg">
<g clip-path="url(#clip0_2_2)">
<path d="M39.9789 20.3742C39.9789 18.7354 39.8428 17.5395 39.5483 16.2994H20.3984V23.696H31.6389C31.4124 25.5342 30.1886 28.3024 27.4691 30.1626L27.4309 30.4102L33.4858 34.9939L33.9053 35.0348C37.7579 31.5579 39.9789 26.4421 39.9789 20.3742Z" fill="#4285F4"/>
<path d="M20.3984 39.8626C25.9053 39.8626 30.5284 38.0908 33.9053 35.0348L27.4691 30.1626C25.7468 31.3363 23.4351 32.1557 20.3984 32.1557C15.0047 32.1557 10.4269 28.6789 8.79506 23.8733L8.55587 23.8931L2.25996 28.6545L2.17762 28.8782C5.53165 35.389 12.4211 39.8626 20.3984 39.8626Z" fill="#34A853"/>
<path d="M8.79487 23.8733C8.36429 22.6331 8.1151 21.3043 8.1151 19.9313C8.1151 18.5582 8.36429 17.2295 8.77222 15.9893L8.76081 15.7252L2.386 10.8873L2.17743 10.9843C0.795069 13.6861 0.0018692 16.7202 0.0018692 19.9313C0.0018692 23.1424 0.795069 26.1763 2.17743 28.8782L8.79487 23.8733Z" fill="#FBBC05"/>
<path d="M20.3984 7.70672C24.2283 7.70672 26.8118 9.32336 28.2849 10.6744L34.0412 5.18214C30.5059 1.97099 25.9053 2.64893e-06 20.3984 2.64893e-06C12.4211 2.64893e-06 5.53165 4.47344 2.17762 10.9843L8.77241 15.9893C10.4269 11.1837 15.0047 7.70672 20.3984 7.70672Z" fill="#EB4335"/>
</g>
<defs>
<clipPath id="clip0_2_2">
<rect width="40" height="40" fill="white"/>
</clipPath>
</defs>
</svg>
